<svg width="512" height="481" viewBox="0 0 512 481" fill="none" xmlns="http://www.w3.org/2000/svg">
<path d="M447.998 167.8V44.8C448.017 38.9192 446.874 33.0927 444.634 27.6548C442.395 22.217 439.104 17.2749 434.95 13.1124C430.796 8.94982 425.86 5.6487 420.427 3.39852C414.994 1.14834 409.169 -0.00658468 403.288 2.82382e-05H280.358C272.298 0.0166128 264.569 3.21097 258.848 8.89003L13.0885 254.58C4.70662 262.989 0 274.377 0 286.25C0 298.123 4.70662 309.511 13.0885 317.92L130.088 434.92C138.494 443.304 149.882 448.012 161.753 448.012C173.625 448.012 185.013 443.304 193.418 434.92L439.108 189.31C444.789 183.591 447.984 175.861 447.998 167.8V167.8ZM351.998 128C345.669 128 339.483 126.123 334.22 122.607C328.958 119.091 324.856 114.093 322.434 108.246C320.012 102.399 319.379 95.9645 320.613 89.7571C321.848 83.5497 324.896 77.8479 329.371 73.3726C333.846 68.8973 339.548 65.8496 345.756 64.6149C351.963 63.3802 358.397 64.0139 364.244 66.4359C370.092 68.8579 375.089 72.9594 378.605 78.2218C382.122 83.4842 383.998 89.671 383.998 96C383.998 104.487 380.627 112.626 374.626 118.627C368.625 124.629 360.485 128 351.998 128Z" fill="#1AA090"/>
<path d="M495.998 48C491.755 48 487.685 49.6857 484.685 52.6863C481.684 55.6869 479.998 59.7566 479.998 64V191.37L218.688 452.69C217.14 454.161 215.902 455.927 215.047 457.884C214.192 459.841 213.737 461.949 213.71 464.085C213.683 466.22 214.083 468.34 214.888 470.318C215.692 472.296 216.885 474.093 218.395 475.603C219.905 477.114 221.702 478.306 223.681 479.111C225.659 479.915 227.778 480.316 229.914 480.288C232.049 480.261 234.157 479.806 236.114 478.951C238.071 478.096 239.837 476.858 241.308 475.31L503.308 213.31C506.095 210.51 508.299 207.185 509.79 203.526C511.282 199.868 512.033 195.95 511.998 192V64C511.998 59.7566 510.313 55.6869 507.312 52.6863C504.312 49.6857 500.242 48 495.998 48V48Z" fill="#1AA090"/>
</svg>
