<svg width="272" height="272" viewBox="0 0 272 272" fill="none" xmlns="http://www.w3.org/2000/svg">
<path d="M155.634 180.964L233.424 258.754" stroke="#1AA090" stroke-width="16"/>
<path d="M180.964 155.634L258.754 233.424" stroke="#1AA090" stroke-width="16"/>
<path d="M258.754 233.424C262.113 236.783 264 241.339 264 246.089C264 250.839 262.113 255.395 258.754 258.754" stroke="#1AA090" stroke-width="16" stroke-linecap="round" stroke-linejoin="round"/>
<path d="M233.424 258.754C236.783 262.113 241.339 264 246.089 264C250.839 264 255.395 262.113 258.754 258.754" stroke="#1AA090" stroke-width="16" stroke-linecap="round" stroke-linejoin="round"/>
<path d="M88.5995 8.00001C99.184 8.00001 109.665 10.0848 119.444 14.1353C129.222 18.1858 138.108 24.1227 145.592 31.6071C153.076 39.0914 159.013 47.9766 163.064 57.7554C167.114 67.5342 169.199 78.015 169.199 88.5995C169.199 99.184 167.114 109.665 163.064 119.444C159.013 129.222 153.076 138.108 145.592 145.592C138.108 153.076 129.222 159.013 119.444 163.064C109.665 167.114 99.184 169.199 88.5995 169.199C67.2232 169.199 46.7224 160.707 31.607 145.592C16.4917 130.477 8 109.976 8 88.5995C8 78.015 10.0848 67.5342 14.1353 57.7554C18.1858 47.9766 24.1227 39.0914 31.607 31.6071C39.0914 24.1227 47.9766 18.1858 57.7554 14.1353C67.5342 10.0848 78.015 8.00001 88.5995 8.00001Z" stroke="#1AA090" stroke-width="16" stroke-linecap="round" stroke-linejoin="round"/>
<path d="M155.634 180.964L180.964 155.634" stroke="#1AA090" stroke-width="16" stroke-linecap="round" stroke-linejoin="round"/>
<path d="M168.299 168.299L145.592 145.592" stroke="#1AA090" stroke-width="16" stroke-linecap="round" stroke-linejoin="round"/>
<path d="M177.254 202.584L202.584 177.254" stroke="#1AA090" stroke-width="16" stroke-linecap="round" stroke-linejoin="round"/>
<path d="M88.5995 43.822C100.475 43.822 111.865 48.5396 120.262 56.937C128.659 65.3344 133.377 76.7238 133.377 88.5995" stroke="#1AA090" stroke-width="16" stroke-linecap="round" stroke-linejoin="round"/>
</svg>
