<svg width="20" height="17" viewBox="0 0 20 17" fill="none" xmlns="http://www.w3.org/2000/svg">
<path d="M18.145 5.27L19.708 3.707L18.294 2.293L16.586 4C15.536 3.37 14.312 3 13 3C9.141 3 6 6.14 6 10C6 13.86 9.141 17 13 17C16.859 17 20 13.86 20 10C19.9992 8.24602 19.3368 6.5569 18.145 5.27ZM13 15C10.243 15 8 12.757 8 10C8 7.243 10.243 5 13 5C15.757 5 18 7.243 18 10C18 12.757 15.757 15 13 15Z" fill="#1AA090"/>
<path d="M12 7H14V11H12V7ZM11 0H15V2H11V0ZM1 5H5V7H1V5ZM1 13H5V15H1V13ZM0 9H3.99V11H0V9Z" fill="#1AA090"/>
</svg>
